<svg width="83" height="24" viewBox="0 0 83 24" fill="none" xmlns="http://www.w3.org/2000/svg">
<path d="M0.672 19V15.52L6.336 6.28H0.888V2.488H11.808V5.992L6.24 15.208H11.928V19H0.672ZM17.8744 19.192C16.8024 19.192 15.9304 19 15.2584 18.616C14.6024 18.232 14.1224 17.712 13.8184 17.056C13.5144 16.4 13.3624 15.664 13.3624 14.848V6.976H18.4264V14.152C18.4264 14.52 18.5304 14.808 18.7384 15.016C18.9624 15.208 19.2264 15.304 19.5304 15.304C19.8504 15.304 20.1784 15.208 20.5144 15.016L20.7784 18.352C20.4264 18.624 19.9704 18.832 19.4104 18.976C18.8504 19.12 18.3384 19.192 17.8744 19.192ZM15.9064 5.656C15.1704 5.656 14.5384 5.424 14.0104 4.96C13.4824 4.48 13.2184 3.896 13.2184 3.208C13.2184 2.728 13.3464 2.312 13.6024 1.96C13.8584 1.592 14.1944 1.304 14.6104 1.096C15.0264 0.887999 15.4584 0.783998 15.9064 0.783998C16.4024 0.783998 16.8504 0.895998 17.2504 1.12C17.6664 1.344 17.9944 1.64 18.2344 2.008C18.4904 2.376 18.6184 2.776 18.6184 3.208C18.6184 3.688 18.4824 4.112 18.2104 4.48C17.9544 4.848 17.6184 5.136 17.2024 5.344C16.8024 5.552 16.3704 5.656 15.9064 5.656ZM22.0125 19V6.976H27.0045V9.592C27.3725 8.696 27.9165 8.008 28.6365 7.528C29.3725 7.048 30.2445 6.808 31.2525 6.808C32.8205 6.808 34.0365 7.352 34.9005 8.44C35.7645 9.512 36.1965 11.032 36.1965 13V19H31.1325V12.736C31.1325 11.312 30.5565 10.6 29.4045 10.6C28.7165 10.6 28.1565 10.856 27.7245 11.368C27.2925 11.864 27.0765 12.536 27.0765 13.384V19H22.0125ZM45.6176 23.68C45.0096 23.68 44.4416 23.64 43.9136 23.56C43.3856 23.48 42.9696 23.384 42.6656 23.272L43.0496 19.792C43.3376 19.856 43.6496 19.904 43.9856 19.936C44.3216 19.984 44.6496 20.008 44.9696 20.008C46.0416 20.008 46.8096 19.784 47.2736 19.336C47.7536 18.888 47.9936 18.2 47.9936 17.272V16.144C47.5456 17.024 46.9936 17.672 46.3376 18.088C45.6816 18.504 44.8576 18.712 43.8656 18.712C42.7296 18.712 41.7056 18.456 40.7936 17.944C39.8816 17.416 39.1616 16.704 38.6336 15.808C38.1216 14.896 37.8656 13.856 37.8656 12.688C37.8656 11.52 38.1216 10.496 38.6336 9.616C39.1616 8.736 39.8816 8.048 40.7936 7.552C41.7056 7.056 42.7296 6.808 43.8656 6.808C44.6656 6.808 45.4336 7.024 46.1696 7.456C46.9056 7.872 47.4656 8.552 47.8496 9.496V6.976H52.8896V16.192C52.8896 18.752 52.2576 20.64 50.9936 21.856C49.7296 23.072 47.9376 23.68 45.6176 23.68ZM45.4256 14.92C46.1136 14.92 46.6896 14.704 47.1536 14.272C47.6176 13.84 47.8496 13.32 47.8496 12.712C47.8496 12.104 47.6176 11.6 47.1536 11.2C46.6896 10.8 46.1136 10.6 45.4256 10.6C44.6896 10.6 44.0816 10.808 43.6016 11.224C43.1376 11.64 42.9056 12.152 42.9056 12.76C42.9056 13.352 43.1376 13.864 43.6016 14.296C44.0816 14.712 44.6896 14.92 45.4256 14.92ZM62.7578 15.832C63.2218 15.832 63.7098 15.784 64.2218 15.688C64.7498 15.592 65.2858 15.416 65.8298 15.16L66.4058 18.256C65.8138 18.56 65.1658 18.792 64.4618 18.952C63.7738 19.112 62.9818 19.192 62.0858 19.192C60.4698 19.192 59.1098 18.928 58.0058 18.4C56.9178 17.872 56.0938 17.144 55.5338 16.216C54.9738 15.288 54.6938 14.216 54.6938 13C54.6938 11.752 54.9898 10.664 55.5818 9.736C56.1898 8.808 56.9978 8.088 58.0058 7.576C59.0138 7.064 60.1258 6.808 61.3418 6.808C63.1498 6.808 64.5338 7.376 65.4938 8.512C66.4538 9.632 66.9338 11.232 66.9338 13.312L59.7818 14.224C60.3098 15.296 61.3018 15.832 62.7578 15.832ZM59.3978 12.016L63.1658 11.224C63.1018 10.712 62.9258 10.336 62.6378 10.096C62.3498 9.84 61.9898 9.712 61.5578 9.712C60.9178 9.712 60.4058 9.936 60.0218 10.384C59.6538 10.816 59.4458 11.36 59.3978 12.016ZM68.6063 19V6.976H73.5983V9.592C73.9663 8.696 74.5103 8.008 75.2303 7.528C75.9663 7.048 76.8383 6.808 77.8463 6.808C79.4143 6.808 80.6303 7.352 81.4943 8.44C82.3583 9.512 82.7903 11.032 82.7903 13V19H77.7263V12.736C77.7263 11.312 77.1503 10.6 75.9983 10.6C75.3103 10.6 74.7503 10.856 74.3183 11.368C73.8863 11.864 73.6703 12.536 73.6703 13.384V19H68.6063Z" fill="#F4F4F5"/>
</svg>
